<?xml version="1.0" encoding="iso-8859-1"?>
<!-- Generator: Adobe Illustrator 18.0.0, SVG Export Plug-In . SVG Version: 6.00 Build 0)  -->
<!DOCTYPE svg PUBLIC "-//W3C//DTD SVG 1.1//EN" "http://www.w3.org/Graphics/SVG/1.1/DTD/svg11.dtd">
<svg version="1.1" id="Capa_1" xmlns="http://www.w3.org/2000/svg" xmlns:xlink="http://www.w3.org/1999/xlink" x="0px" y="0px"
	 viewBox="0 0 297.5 297.5" style="enable-background:new 0 0 297.5 297.5;" xml:space="preserve">
<g id="XMLID_25_">
	<g>
		<path style="fill:#7F8C8D;" d="M182.37,237.76h-67.24c16.05-19.94,26.87-45.87,33.62-66.54
			C155.5,191.89,166.32,217.82,182.37,237.76z"/>
		<path style="fill:#FFA800;" d="M251.81,154.87v82.89h-43.53c-36.03-30.4-50.18-104.03-50.32-104.78c-0.82-4.43-4.69-7.65-9.2-7.65
			c-0.01,0-0.01,0-0.01,0c-4.51,0-8.38,3.21-9.21,7.65c-0.14,0.75-14.28,74.38-50.32,104.78H45.69v-82.89
			c59.16-26.7,89.7-64.17,103.06-85.13C162.12,90.7,192.65,128.17,251.81,154.87z"/>
		<path d="M287.88,237.76c5.18,0,9.37,4.19,9.37,9.37c0,5.17-4.19,9.36-9.37,9.36H9.62c-5.17,0-9.37-4.19-9.37-9.36
			c0-5.18,4.2-9.37,9.37-9.37h17.33v-89.01c0-3.75,2.25-7.15,5.7-8.62c82.15-35.01,107.22-92.81,107.47-93.39
			c1.46-3.47,4.86-5.73,8.63-5.73s7.18,2.26,8.64,5.73c0.05,0.12,6.41,14.78,22.77,33.52c15.08,17.27,42.02,41.68,84.7,59.87
			c3.45,1.47,5.69,4.87,5.69,8.62v89.01H287.88z M251.81,237.76v-82.89c-59.16-26.7-89.69-64.17-103.06-85.13
			c-13.36,20.96-43.9,58.43-103.06,85.13v82.89h43.53c36.04-30.4,50.18-104.03,50.32-104.78c0.83-4.44,4.7-7.65,9.21-7.65
			c0,0,0,0,0.01,0c4.51,0,8.38,3.22,9.2,7.65c0.14,0.75,14.29,74.38,50.32,104.78H251.81z M115.13,237.76h67.24
			c-16.05-19.94-26.87-45.87-33.62-66.54C142,191.89,131.18,217.82,115.13,237.76z"/>
	</g>
	<g>
	</g>
</g>
<g>
</g>
<g>
</g>
<g>
</g>
<g>
</g>
<g>
</g>
<g>
</g>
<g>
</g>
<g>
</g>
<g>
</g>
<g>
</g>
<g>
</g>
<g>
</g>
<g>
</g>
<g>
</g>
<g>
</g>
</svg>
