<?xml version="1.0" encoding="utf-8"?>
<!-- Generator: Adobe Illustrator 16.0.0, SVG Export Plug-In . SVG Version: 6.00 Build 0)  -->
<!DOCTYPE svg PUBLIC "-//W3C//DTD SVG 1.1//EN" "http://www.w3.org/Graphics/SVG/1.1/DTD/svg11.dtd">
<svg version="1.1" id="Layer_1" xmlns="http://www.w3.org/2000/svg" xmlns:xlink="http://www.w3.org/1999/xlink" x="0px" y="0px"
	 width="196px" height="80px" viewBox="0 0 196 80" enable-background="new 0 0 196 80" xml:space="preserve">
<g>
	<path fill-rule="evenodd" clip-rule="evenodd" fill="#78A12F" d="M40.312,70.607h-0.058c-0.275,0.007-0.555-0.035-0.83-0.162
		c-2.996-1.278-4.954-3.279-5.517-5.623c-0.153-0.67-0.198-1.35-0.127-2.013c-1.34-0.071-2.292-0.556-2.872-0.954
		c-1.66-1.17-2.502-3.296-2.142-5.427c0.164-0.975,1.12-1.627,2.142-1.476c1.019,0.155,1.717,1.056,1.553,2.029
		c-0.138,0.82,0.139,1.66,0.679,2.035c0.811,0.566,2.17,0.086,2.909-0.259c0.793-0.357,1.756-0.146,2.3,0.516
		c0.54,0.661,0.514,1.6-0.059,2.23c-0.674,0.749-0.938,1.651-0.729,2.542c0.262,1.074,1.202,2.071,2.691,2.847
		c1.51-0.784,2.456-1.772,2.709-2.847c0.21-0.856-0.049-1.739-0.719-2.479c-0.575-0.654-0.593-1.601-0.024-2.259
		c0.567-0.66,1.549-0.854,2.343-0.45c1.118,0.565,1.981,0.626,2.584,0.178c0.646-0.49,0.823-1.359,0.757-1.607
		c-0.373-0.914,0.108-1.931,1.073-2.28c0.968-0.348,2.052,0.104,2.43,1.02c0.685,1.693-0.069,4.095-1.724,5.472
		c-0.491,0.412-1.489,1.075-2.93,1.207c0.066,0.652,0.023,1.321-0.13,1.975c-0.557,2.344-2.525,4.341-5.543,5.623
		C40.827,70.562,40.566,70.607,40.312,70.607 M53.699,54.688c-0.838,0-1.601-0.538-1.81-1.342c-0.254-0.945,0.349-1.903,1.354-2.143
		c2.996-0.713,5.046-2.517,5.789-5.041c0.786-2.702-0.051-5.728-2.147-7.703c-2.176-2.052-5.389-2.644-9.058-1.692
		c-0.759,0.195-1.569-0.084-2.022-0.686c-0.459-0.604-0.464-1.423-0.013-2.029c1.301-1.769,1.591-4.351,0.788-6.916
		c-0.961-3.027-3.243-5.504-6.327-6.87c-3.084,1.366-5.369,3.843-6.328,6.87c-0.806,2.565-0.516,5.147,0.786,6.916
		c0.459,0.605,0.451,1.434-0.017,2.042c-0.469,0.611-1.292,0.873-2.049,0.662c-6.272-1.765-9.884,0.928-11.18,4.022
		c-1.231,2.958-0.671,6.966,2.787,8.589c0.933,0.43,1.305,1.492,0.842,2.377c-0.457,0.863-1.586,1.22-2.503,0.79
		c-4.797-2.257-6.772-7.859-4.611-13.054c1.546-3.702,5.553-7.312,12.091-6.779c-0.512-2.046-0.438-4.34,0.271-6.582
		c1.346-4.267,4.68-7.7,9.151-9.391c0.248-0.107,0.51-0.142,0.759-0.134c0.253-0.008,0.509,0.026,0.758,0.134
		c4.474,1.691,7.806,5.125,9.154,9.391c0.719,2.277,0.785,4.607,0.244,6.669c3.569-0.169,6.729,0.909,9.125,3.165
		c3.03,2.858,4.246,7.242,3.108,11.16c-1.096,3.746-4.19,6.489-8.487,7.51C54.003,54.671,53.854,54.688,53.699,54.688z
		 M43.155,54.498c-0.972,0-1.8-0.72-1.867-1.645c-0.095-1.34-0.174-3.13-0.111-5.08c-0.578,0.156-1.165,0.311-1.772,0.478
		c-0.038,1.623-0.159,3.183-0.33,4.54c-0.13,0.961-1.058,1.66-2.088,1.544c-1.028-0.125-1.756-0.996-1.634-1.976
		c0.138-1.03,0.226-2.08,0.272-3.125c-0.259,0.073-0.53,0.135-0.799,0.198c-1,0.238-2.022-0.328-2.274-1.269
		c-0.259-0.946,0.343-1.918,1.346-2.166c0.592-0.142,1.164-0.278,1.732-0.427c-0.109-2.306-0.445-4.306-0.989-5.62
		c-0.371-0.912,0.105-1.932,1.072-2.286c0.965-0.351,2.051,0.097,2.421,1.006c0.671,1.641,1.037,3.73,1.194,5.917
		c0.731-0.192,1.444-0.379,2.154-0.556c0.257-1.833,0.692-3.632,1.391-5.167c0.414-0.899,1.514-1.307,2.464-0.918
		c0.946,0.39,1.387,1.429,0.974,2.326c-0.37,0.809-0.667,1.783-0.895,2.923c1.058-0.184,2.11-0.318,3.177-0.387
		c1.037-0.071,1.917,0.668,1.994,1.639c0.064,0.969-0.712,1.815-1.742,1.886c-1.273,0.08-2.563,0.275-3.881,0.551
		c-0.104,1.748-0.08,3.678,0.065,5.724c0.07,0.977-0.71,1.816-1.742,1.889H43.155z M48.297,54.239h-0.099
		c-1.032-0.055-1.835-0.882-1.774-1.854l0.18-3.309c0.046-0.908,0.812-1.619,1.77-1.675c2.185-0.104,3.811-0.869,4.472-2.09
		c0.424-0.795,0.382-1.701-0.092-2.396c-0.558-0.806-1.625-1.2-3.006-1.121c-1.032,0.059-1.922-0.679-1.985-1.649
		c-0.061-0.978,0.723-1.816,1.756-1.877c2.731-0.163,5.049,0.827,6.36,2.702c1.213,1.75,1.335,4.029,0.312,5.93
		c-1.078,2.006-3.184,3.354-5.929,3.848l-0.099,1.819C50.11,53.507,49.283,54.239,48.297,54.239z M29.598,54.105
		c-0.465,0-1.002-0.052-1.761-0.204c-0.51-0.094-0.938-0.379-1.217-0.782c-0.275-0.407-0.357-0.901-0.23-1.369l2.546-9.804
		c-0.316,0.058-0.595,0.164-0.825,0.324c-0.509,0.353-0.784,0.953-0.769,1.684c0.014,0.979-0.802,1.785-1.842,1.79
		c-1.037,0.026-1.888-0.745-1.904-1.739c-0.027-1.876,0.801-3.541,2.292-4.584c1.618-1.119,3.727-1.358,5.953-0.664
		c0.93,0.294,1.471,1.21,1.237,2.112l-2.499,9.584c0.367-0.052,0.854-0.106,1.5-0.142c1.038-0.058,1.918,0.69,1.981,1.658
		c0.057,0.981-0.735,1.817-1.765,1.881c-0.644,0.024-1.057,0.085-1.424,0.138C30.422,54.054,30.042,54.105,29.598,54.105z
		 M10.79,15.424l52.514-5.475l4.593-0.477l0.502,4.604l5.512,52.011c0.269,2.533-1.585,4.823-4.119,5.087l-52.515,5.475
		c-2.534,0.266-4.827-1.594-5.094-4.127L6.671,20.51C6.402,17.976,8.256,15.688,10.79,15.424z"/>
	<path fill="#78A12F" d="M169.317,46.758c3.383-0.357,6.326,1.769,6.681,5.151c0.355,3.403-2.081,6.07-5.464,6.427
		c-3.361,0.353-6.299-1.75-6.657-5.152C163.521,49.799,165.955,47.11,169.317,46.758 M170.289,55.993
		c1.799-0.188,3.151-1.732,2.933-3.793c-0.215-2.038-1.859-3.291-3.657-3.103c-1.779,0.188-3.128,1.754-2.912,3.793
		C166.867,54.952,168.511,56.18,170.289,55.993z M154.899,48.271c2.558-0.269,3.568,1.206,3.568,1.206l0.043-0.006
		c0,0-0.014-0.13-0.03-0.283c-0.051-0.496,0.24-1.055,1.108-1.147l2.56-0.268l0.245,2.344l-0.845,0.087
		c-0.284,0.03-0.46,0.202-0.433,0.484l0.799,7.61c0.4,3.795-2.398,5.537-5.281,5.839c-1.389,0.147-2.904-0.089-4.026-0.54
		l0.619-2.259c0,0,1.442,0.594,3.133,0.415c1.67-0.175,3.048-1.041,2.839-3.037l-0.054-0.521c-0.029-0.261-0.041-0.589-0.041-0.589
		l-0.043,0.006c-0.552,1.001-1.455,1.6-2.927,1.755c-3.168,0.332-5.236-2.037-5.555-5.073
		C150.259,51.26,151.712,48.606,154.899,48.271z M158.71,53.463c-0.264-2.516-1.592-3.056-3.089-2.898
		c-1.669,0.175-2.452,1.485-2.255,3.351c0.204,1.93,1.329,3.258,3.106,3.072C157.795,56.847,158.973,55.956,158.71,53.463z
		 M143.537,49.467c3.167-0.332,5.145,1.806,5.452,4.732c0.034,0.325,0.042,1.024,0.042,1.024l-7.633,0.804
		c0.422,1.929,1.961,2.797,3.629,2.62c1.779-0.186,2.972-1.56,2.972-1.56l1.35,1.787c0,0-1.516,1.849-4.27,2.137
		c-3.664,0.385-6.221-2.021-6.549-5.165C138.172,52.441,140.219,49.813,143.537,49.467z M146.076,53.605
		c-0.183-1.316-1.188-2.131-2.315-2.014c-1.41,0.149-2.319,1.099-2.476,2.519L146.076,53.605z M132.954,53.692
		c-0.035-0.326-0.223-0.459-0.528-0.427l-0.866,0.092l-0.246-2.342l2.624-0.277c1.019-0.104,1.5,0.301,1.608,1.321l0.713,6.787
		c0.03,0.306,0.223,0.459,0.527,0.428l0.867-0.092l0.244,2.322l-2.624,0.273c-1.02,0.107-1.499-0.28-1.608-1.321L132.954,53.692z
		 M132.331,46.523l2.385-0.251l0.269,2.538l-2.386,0.25L132.331,46.523z M120.333,50.635c-0.033-0.326-0.224-0.46-0.528-0.429
		l-0.866,0.092l-0.247-2.341l2.624-0.277c1.019-0.105,1.5,0.085,1.606,1.103l0.735,6.983l0.823-0.086
		c0.347-0.037,0.795-0.151,0.999-0.523l1.886-3.727l3.059-0.322l-2.36,4.459c-0.403,0.743-0.732,0.952-0.732,0.952l0.005,0.044
		c0,0,0.406,0.111,0.872,0.785l1.508,2.253c0.208,0.309,0.434,0.37,0.955,0.316l0.737-0.078l0.245,2.322l-2.039,0.214
		c-0.933,0.098-1.318-0.015-1.836-0.772l-2.208-3.275c-0.258-0.367-0.715-0.341-1.061-0.306l-0.608,0.064l0.508,4.835l-2.753,0.289
		L120.333,50.635z M111.269,60.751c0,0,1.581,1.479,3.468,1.28c0.845-0.089,1.46-0.505,1.381-1.243
		c-0.163-1.56-5.994-0.926-6.37-4.502c-0.233-2.213,1.655-3.442,3.952-3.685c1.497-0.157,3.935,0.092,4.123,1.893l0.121,1.147
		l-2.427,0.256l-0.056-0.541c-0.056-0.521-0.865-0.7-1.471-0.634c-0.976,0.102-1.612,0.518-1.543,1.17
		c0.183,1.734,6.022,0.77,6.41,4.457c0.218,2.081-1.487,3.576-3.896,3.827c-3.034,0.32-4.804-1.489-4.804-1.489L111.269,60.751z
		 M103.899,52.362c-0.035-0.325-0.224-0.461-0.528-0.43l-0.865,0.094l-0.247-2.344l2.624-0.274c1.019-0.107,1.521,0.3,1.63,1.319
		l1.169,11.125c0.033,0.303,0.223,0.457,0.527,0.425l0.845-0.088l0.245,2.321l-2.601,0.271c-1.042,0.109-1.521-0.277-1.629-1.319
		L103.899,52.362z M95.704,54.494c3.383-0.356,6.325,1.77,6.682,5.15c0.356,3.405-2.081,6.073-5.464,6.43
		c-3.361,0.352-6.301-1.751-6.659-5.154C89.908,57.538,92.345,54.848,95.704,54.494z M96.677,63.732
		c1.799-0.191,3.149-1.735,2.934-3.793c-0.215-2.04-1.861-3.293-3.659-3.104c-1.779,0.188-3.127,1.753-2.912,3.791
		C93.256,62.688,94.898,63.918,96.677,63.732z M78.249,54.641l-1.409,0.149l-0.253-2.407l7.047-0.74
		c2.884-0.305,5.112,1.5,5.426,4.491c0.316,2.995-1.481,5.287-4.366,5.592l-2.797,0.294l0.559,5.312l-2.841,0.297L78.249,54.641z
		 M83.917,59.352c1.605-0.17,2.406-1.306,2.237-2.911c-0.167-1.583-1.185-2.505-2.744-2.341l-2.322,0.243l0.552,5.248L83.917,59.352
		z M187.712,28.63l0.346-0.038l-0.007-0.085c-0.167-1.583-0.858-2.104-2.268-1.955c-0.5,0.052-1.459,0.286-1.396,0.892l0.062,0.585
		l-2.56,0.269l-0.123-1.171c-0.216-2.059,2.666-2.582,3.815-2.704c3.687-0.386,4.973,1.431,5.233,3.902l0.434,4.121
		c0.032,0.303,0.224,0.458,0.528,0.425l0.865-0.09l0.245,2.321l-2.471,0.261c-1.019,0.105-1.47-0.418-1.538-1.068
		c-0.028-0.282-0.027-0.48-0.027-0.48l-0.045,0.005c0,0-0.641,2.041-3.132,2.303c-1.976,0.208-3.904-0.84-4.137-3.053
		C181.174,29.602,185.912,28.818,187.712,28.63z M186.119,33.906c1.474-0.156,2.352-1.827,2.209-3.171l-0.027-0.261l-0.478,0.051
		c-1.431,0.149-3.687,0.584-3.525,2.123C184.375,33.387,184.99,34.023,186.119,33.906z M163.412,29.78
		c-0.143-0.312-0.322-0.361-0.648-0.326l-0.304,0.031l-0.247-2.342l1.887-0.197c0.91-0.096,1.374,0.139,1.68,0.962l2.271,5.966
		c0.213,0.57,0.34,1.148,0.34,1.148l0.043-0.004c0,0,0.026-0.593,0.137-1.199l1.279-7.435l2.429-0.256l2.82,7.006
		c0.234,0.567,0.361,1.145,0.361,1.145l0.043-0.004c0,0,0.004-0.592,0.093-1.193l0.96-6.306c0.128-0.868,0.533-1.196,1.442-1.292
		l1.888-0.199l0.247,2.342l-0.305,0.033c-0.325,0.033-0.47,0.115-0.565,0.454l-1.771,8.604l-3.101,0.326l-2.549-6.112
		c-0.234-0.567-0.385-1.165-0.385-1.165l-0.044,0.005c0,0-0.044,0.619-0.157,1.223l-1.201,6.506l-3.123,0.328L163.412,29.78z
		 M156.264,29.983l-1.431,0.149l-0.231-2.189l1.497-0.156l-0.317-3.016l2.689-0.282l0.317,3.015l2.518-0.264l0.229,2.188
		l-2.516,0.264l0.47,4.467c0.192,1.823,1.651,1.932,2.408,1.852c0.306-0.033,0.495-0.096,0.495-0.096l0.251,2.407
		c0,0-0.338,0.102-0.839,0.153c-1.539,0.163-4.644,0.03-5.034-3.679L156.264,29.983z M146.68,36.406c0,0,1.582,1.479,3.467,1.281
		c0.847-0.089,1.46-0.505,1.383-1.243c-0.164-1.56-5.995-0.926-6.37-4.503c-0.234-2.212,1.654-3.441,3.953-3.683
		c1.495-0.158,3.934,0.091,4.122,1.891l0.122,1.149l-2.429,0.254l-0.058-0.54c-0.054-0.521-0.862-0.7-1.468-0.636
		c-0.977,0.103-1.613,0.521-1.545,1.171c0.184,1.734,6.023,0.769,6.41,4.456c0.218,2.082-1.488,3.578-3.892,3.83
		c-3.038,0.319-4.807-1.49-4.807-1.49L146.68,36.406z M137.208,32.623c-0.036-0.326-0.225-0.459-0.528-0.427l-0.867,0.089
		l-0.248-2.34l2.516-0.265c0.976-0.104,1.518,0.257,1.616,1.188l0.069,0.651c0.043,0.413,0.028,0.699,0.028,0.699l0.044-0.005
		c0.332-1.635,1.522-3.033,3.213-3.21c0.241-0.024,0.504-0.008,0.504-0.008l0.285,2.71c0,0-0.285-0.014-0.677,0.027
		c-1.172,0.123-2.446,0.937-2.771,2.636c-0.094,0.559-0.118,1.175-0.048,1.824l0.459,4.382l-2.732,0.287L137.208,32.623z
		 M129.316,30.338c3.165-0.333,5.146,1.805,5.453,4.733c0.035,0.325,0.041,1.025,0.041,1.025l-7.632,0.803
		c0.423,1.93,1.961,2.798,3.63,2.622c1.778-0.187,2.971-1.562,2.971-1.562l1.35,1.787c0,0-1.516,1.85-4.271,2.14
		c-3.664,0.385-6.219-2.021-6.548-5.166C123.952,33.313,125.998,30.686,129.316,30.338z M131.856,34.479
		c-0.183-1.319-1.188-2.135-2.317-2.015c-1.41,0.147-2.318,1.097-2.475,2.517L131.856,34.479z M118.085,31.52
		c1.431-0.151,4.073,0.165,4.274,2.073l0.137,1.299l-2.429,0.255l-0.063-0.605c-0.065-0.608-1.003-0.772-1.676-0.702
		c-1.908,0.199-3.122,1.796-2.912,3.792c0.237,2.255,2.028,3.229,3.807,3.042c1.886-0.199,3.115-1.841,3.115-1.841l1.351,1.789
		c0,0-1.438,2.167-4.452,2.484c-3.643,0.382-6.257-1.951-6.595-5.162C112.315,34.821,114.291,31.918,118.085,31.52z M104.942,36.014
		c-0.033-0.326-0.223-0.459-0.526-0.427l-0.866,0.091l-0.248-2.342l2.516-0.265c0.975-0.103,1.517,0.258,1.617,1.19l0.067,0.651
		c0.044,0.413,0.029,0.699,0.029,0.699l0.044-0.005c0.332-1.636,1.522-3.032,3.214-3.21c0.24-0.024,0.504-0.008,0.504-0.008
		l0.284,2.712c0,0-0.284-0.017-0.676,0.025c-1.171,0.123-2.446,0.938-2.771,2.637c-0.094,0.558-0.12,1.175-0.048,1.826l0.46,4.381
		l-2.733,0.285L104.942,36.014z M98.423,38.015l0.348-0.037l-0.009-0.086c-0.167-1.583-0.857-2.103-2.267-1.954
		c-0.499,0.052-1.46,0.285-1.396,0.892l0.062,0.585l-2.559,0.269l-0.124-1.17c-0.217-2.062,2.667-2.583,3.816-2.705
		c3.687-0.388,4.973,1.429,5.233,3.9l0.433,4.122c0.032,0.303,0.224,0.457,0.528,0.425l0.867-0.091l0.244,2.321l-2.472,0.259
		c-1.019,0.107-1.469-0.415-1.538-1.064c-0.03-0.284-0.028-0.48-0.028-0.48l-0.043,0.005c0,0-0.642,2.039-3.133,2.302
		c-1.975,0.207-3.905-0.84-4.137-3.051C91.883,38.986,96.624,38.204,98.423,38.015z M96.83,43.291
		c1.474-0.154,2.352-1.827,2.209-3.172l-0.026-0.261l-0.477,0.05c-1.432,0.152-3.688,0.586-3.527,2.125
		C95.087,42.771,95.703,43.409,96.83,43.291z M76.155,34.722c-0.033-0.305-0.224-0.459-0.528-0.428l-0.932,0.098l-0.253-2.407
		l2.775-0.292c1.041-0.109,1.522,0.3,1.63,1.32l0.53,5.052l6.788-0.713l-0.532-5.052c-0.106-1.019,0.3-1.523,1.319-1.63l2.775-0.291
		l0.253,2.406l-0.932,0.098c-0.304,0.033-0.459,0.225-0.428,0.528l1.315,12.512l-2.839,0.298l-0.679-6.462l-6.788,0.713l0.678,6.461
		l-2.838,0.3L76.155,34.722z M146.098,6.68c-0.035-0.324-0.225-0.458-0.528-0.427l-0.867,0.092l-0.246-2.341l2.624-0.277
		c1.018-0.105,1.499,0.084,1.605,1.102l0.733,6.981l0.824-0.086c0.348-0.036,0.797-0.148,0.998-0.521l1.888-3.728l3.058-0.321
		l-2.359,4.458c-0.405,0.744-0.734,0.953-0.734,0.953l0.005,0.044c0,0,0.406,0.111,0.872,0.784l1.509,2.254
		c0.207,0.307,0.432,0.37,0.953,0.316l0.738-0.078l0.243,2.321l-2.038,0.212c-0.933,0.099-1.317-0.013-1.834-0.772l-2.207-3.274
		c-0.259-0.369-0.716-0.342-1.063-0.307l-0.607,0.065l0.51,4.835l-2.755,0.29L146.098,6.68z M138.75,8.724
		c3.166-0.332,5.144,1.806,5.452,4.732c0.033,0.325,0.042,1.025,0.042,1.025l-7.635,0.804c0.424,1.928,1.961,2.796,3.632,2.62
		c1.777-0.186,2.971-1.562,2.971-1.562l1.35,1.789c0,0-1.518,1.849-4.27,2.138c-3.665,0.385-6.22-2.022-6.55-5.166
		C133.384,11.698,135.432,9.072,138.75,8.724z M141.289,12.864c-0.182-1.319-1.189-2.134-2.315-2.015
		c-1.411,0.147-2.318,1.101-2.476,2.518L141.289,12.864z M123.197,20.312l4.441-6.76c0.434-0.682,0.825-1.116,0.825-1.116
		l-0.004-0.044c0,0-0.322,0.079-1.015,0.151l-1.995,0.209c-0.303,0.032-0.458,0.223-0.426,0.527l0.066,0.629l-2.493,0.263
		l-0.208-1.975c-0.106-1.019,0.279-1.52,1.319-1.629l8.11-0.852l0.157,1.496l-4.442,6.757c-0.434,0.662-0.826,1.118-0.826,1.118
		l0.004,0.044c0,0,0.318-0.101,1.034-0.176l2.429-0.254c0.303-0.032,0.462-0.202,0.427-0.526l-0.063-0.608l2.495-0.262l0.204,1.952
		c0.109,1.041-0.279,1.52-1.297,1.627l-8.587,0.902L123.197,20.312z M117.224,15.416l0.304-0.032l-0.009-0.088
		c-0.167-1.583-0.857-2.102-2.267-1.952c-0.499,0.052-1.461,0.284-1.396,0.892l0.062,0.585l-2.559,0.269l-0.123-1.171
		c-0.215-2.039,2.665-2.582,3.816-2.702c3.686-0.388,4.971,1.428,5.231,3.899l0.435,4.12c0.031,0.303,0.223,0.459,0.526,0.426
		l0.866-0.09l0.244,2.321c-0.375,0.39-1.103,1.19-1.037,1.819c0.075,0.693,1.146,0.668,1.146,0.668l-0.435,2.106
		c0,0-2.694,0.041-2.888-1.801c-0.116-1.106,0.605-1.97,1.181-2.536l-0.004-0.043l-0.542,0.056c-0.977,0.103-1.391-0.51-1.444-1.009
		l-0.011-0.109c-0.025-0.238-0.002-0.438-0.002-0.438l-0.043,0.004c0,0-0.598,2.037-3.178,2.309c-2.017,0.21-3.867-0.91-4.092-3.057
		C110.638,16.37,115.379,15.609,117.224,15.416z M115.586,20.696c1.473-0.155,2.351-1.826,2.209-3.17l-0.026-0.262l-0.477,0.051
		c-1.432,0.15-3.687,0.607-3.526,2.124C113.845,20.176,114.458,20.814,115.586,20.696z M105.161,15.367
		c-0.034-0.325-0.223-0.458-0.527-0.426l-0.869,0.092l-0.245-2.343l2.623-0.275c1.02-0.107,1.502,0.302,1.609,1.32l0.713,6.789
		c0.031,0.304,0.224,0.458,0.527,0.427l0.867-0.092l0.243,2.321l-2.623,0.276c-1.02,0.107-1.499-0.282-1.609-1.321L105.161,15.367z
		 M104.54,8.198l2.385-0.25l0.267,2.537l-2.386,0.249L104.54,8.198z M86.289,17.264c-0.144-0.315-0.323-0.36-0.649-0.327
		l-0.304,0.033l-0.246-2.342l1.888-0.199c0.909-0.095,1.374,0.141,1.678,0.964l2.272,5.966c0.212,0.57,0.339,1.148,0.339,1.148
		l0.043-0.004c0,0,0.025-0.595,0.137-1.198l1.279-7.434l2.429-0.256l2.819,7.004c0.235,0.567,0.363,1.145,0.363,1.145l0.042-0.004
		c0,0,0.003-0.591,0.093-1.192l0.961-6.305c0.127-0.868,0.531-1.198,1.441-1.293l1.888-0.199l0.246,2.343l-0.304,0.031
		c-0.325,0.034-0.47,0.115-0.565,0.456l-1.771,8.604l-3.101,0.327l-2.55-6.113c-0.235-0.567-0.386-1.167-0.386-1.167l-0.042,0.005
		c0,0-0.045,0.62-0.156,1.223l-1.202,6.507l-3.124,0.329L86.289,17.264z M73.466,25.209l5.887-10.527
		c0.537-0.933,1.024-1.511,1.024-1.511l-0.004-0.044c0,0-0.452,0.093-1.166,0.168l-3.729,0.391
		c-0.304,0.032-0.459,0.225-0.427,0.529l0.098,0.931l-2.581,0.271l-0.246-2.341c-0.107-1.019,0.278-1.521,1.32-1.629l9.996-1.05
		l0.187,1.776l-5.886,10.55c-0.535,0.956-1.025,1.511-1.025,1.511l0.005,0.043c0,0,0.451-0.091,1.168-0.167l4.205-0.442
		c0.306-0.03,0.461-0.223,0.427-0.527l-0.097-0.932l2.558-0.27l0.247,2.343c0.109,1.041-0.278,1.521-1.319,1.63L73.655,27.01
		L73.466,25.209z"/>
</g>
</svg>
