<?xml version="1.0" encoding="utf-8"?>
<!-- Generator: Adobe Illustrator 16.0.0, SVG Export Plug-In . SVG Version: 6.00 Build 0)  -->
<!DOCTYPE svg PUBLIC "-//W3C//DTD SVG 1.1//EN" "http://www.w3.org/Graphics/SVG/1.1/DTD/svg11.dtd">
<svg version="1.1" id="Warstwa_1" xmlns="http://www.w3.org/2000/svg" xmlns:xlink="http://www.w3.org/1999/xlink" x="0px" y="0px"
	 width="168.667px" height="198.866px" viewBox="0 0 168.667 198.866" enable-background="new 0 0 168.667 198.866"
	 xml:space="preserve">
<g>
	<path fill-rule="evenodd" clip-rule="evenodd" fill="#6E9F31" d="M83.585,186.538h-0.178c-0.861,0.021-1.734-0.11-2.597-0.509
		c-9.36-3.991-15.479-10.249-17.239-17.573c-0.477-2.088-0.619-4.215-0.395-6.29c-4.19-0.217-7.161-1.732-8.975-2.978
		c-5.19-3.657-7.817-10.298-6.691-16.965c0.509-3.042,3.5-5.08,6.691-4.607c3.188,0.487,5.366,3.301,4.856,6.343
		c-0.431,2.562,0.438,5.183,2.12,6.361c2.538,1.764,6.786,0.267,9.093-0.808c2.479-1.121,5.489-0.459,7.188,1.608
		c1.691,2.063,1.603,4.998-0.183,6.969c-2.11,2.344-2.933,5.162-2.277,7.944c0.818,3.361,3.753,6.474,8.41,8.893
		c4.717-2.447,7.671-5.532,8.466-8.893c0.658-2.675-0.153-5.432-2.25-7.741c-1.802-2.049-1.852-5.005-0.076-7.065
		c1.773-2.06,4.841-2.668,7.321-1.405c3.49,1.768,6.193,1.957,8.079,0.555c2.019-1.53,2.574-4.244,2.366-5.023
		c-1.17-2.856,0.334-6.03,3.347-7.122c3.027-1.088,6.414,0.324,7.597,3.188c2.14,5.29-0.217,12.792-5.388,17.093
		c-1.533,1.292-4.649,3.362-9.156,3.771c0.209,2.038,0.075,4.13-0.406,6.172c-1.743,7.325-7.894,13.564-17.328,17.573
		C85.197,186.392,84.386,186.538,83.585,186.538"/>
	<path fill-rule="evenodd" clip-rule="evenodd" fill="#6E9F31" d="M125.42,136.792c-2.618,0-5.002-1.687-5.651-4.194
		c-0.792-2.953,1.086-5.951,4.229-6.698c9.363-2.227,15.768-7.855,18.089-15.756c2.458-8.441-0.158-17.895-6.708-24.065
		c-6.802-6.416-16.844-8.264-28.302-5.29c-2.378,0.61-4.906-0.262-6.32-2.143c-1.436-1.883-1.455-4.444-0.044-6.338
		c4.068-5.526,4.97-13.597,2.46-21.612c-3.004-9.458-10.13-17.202-19.767-21.47c-9.637,4.268-16.782,12.012-19.775,21.47
		c-2.519,8.015-1.615,16.085,2.455,21.612c1.436,1.894,1.409,4.479-0.052,6.384c-1.464,1.911-4.038,2.728-6.407,2.066
		c-19.599-5.514-30.883,2.901-34.935,12.57c-3.846,9.243-2.092,21.769,8.712,26.845c2.914,1.341,4.081,4.657,2.629,7.42
		c-1.426,2.7-4.956,3.814-7.823,2.476c-14.987-7.058-21.163-24.56-14.407-40.798c4.834-11.569,17.353-22.847,37.785-21.182
		c-1.599-6.398-1.368-13.568,0.847-20.57c4.208-13.333,14.626-24.062,28.6-29.346c0.779-0.336,1.593-0.445,2.373-0.42
		c0.79-0.025,1.59,0.083,2.369,0.42c13.98,5.284,24.389,16.013,28.605,29.346c2.252,7.117,2.456,14.395,0.765,20.842
		c11.149-0.531,21.028,2.835,28.514,9.891c9.472,8.928,13.267,22.628,9.713,34.877c-3.422,11.7-13.095,20.273-26.52,23.464
		C126.374,136.738,125.906,136.792,125.42,136.792z"/>
	<path fill-rule="evenodd" clip-rule="evenodd" fill="#6E9F31" d="M92.476,136.194c-3.038,0-5.628-2.249-5.839-5.141
		c-0.295-4.183-0.541-9.775-0.349-15.873c-1.802,0.487-3.638,0.971-5.537,1.491c-0.118,5.073-0.498,9.946-1.032,14.194
		c-0.406,2.996-3.305,5.183-6.524,4.82c-3.208-0.391-5.489-3.116-5.108-6.172c0.427-3.22,0.708-6.503,0.852-9.765
		c-0.809,0.224-1.659,0.423-2.499,0.615c-3.127,0.747-6.318-1.024-7.106-3.963c-0.812-2.953,1.073-5.99,4.207-6.77
		c1.85-0.438,3.635-0.868,5.412-1.334c-0.347-7.202-1.389-13.453-3.089-17.561c-1.156-2.847,0.329-6.037,3.349-7.14
		c3.019-1.097,6.407,0.301,7.566,3.143c2.097,5.128,3.239,11.657,3.727,18.488c2.288-0.598,4.514-1.181,6.736-1.732
		c0.804-5.727,2.163-11.349,4.349-16.151c1.288-2.803,4.724-4.08,7.694-2.866c2.963,1.219,4.333,4.465,3.042,7.27
		c-1.154,2.525-2.077,5.572-2.791,9.132c3.307-0.574,6.59-0.989,9.923-1.205c3.241-0.223,5.992,2.086,6.232,5.119
		c0.203,3.022-2.227,5.674-5.445,5.895c-3.982,0.245-8.013,0.857-12.13,1.72c-0.324,5.462-0.247,11.492,0.205,17.885
		c0.217,3.056-2.216,5.678-5.443,5.902H92.476z"/>
	<path fill-rule="evenodd" clip-rule="evenodd" fill="#6E9F31" d="M108.539,135.386h-0.309c-3.223-0.167-5.729-2.753-5.544-5.795
		l0.565-10.341c0.139-2.835,2.54-5.059,5.528-5.226c6.827-0.328,11.914-2.718,13.977-6.535c1.325-2.483,1.191-5.314-0.285-7.486
		c-1.747-2.519-5.08-3.753-9.395-3.508c-3.227,0.187-6.008-2.12-6.204-5.151c-0.192-3.06,2.263-5.676,5.491-5.868
		c8.533-0.509,15.779,2.583,19.87,8.445c3.794,5.464,4.177,12.586,0.979,18.529c-3.365,6.259-9.95,10.485-18.53,12.025l-0.308,5.678
		C114.208,133.092,111.625,135.386,108.539,135.386z"/>
	<path fill-rule="evenodd" clip-rule="evenodd" fill="#6E9F31" d="M50.107,134.966c-1.455,0-3.132-0.16-5.505-0.637
		c-1.588-0.292-2.929-1.188-3.801-2.444c-0.857-1.273-1.115-2.817-0.719-4.276l7.954-30.637c-0.985,0.181-1.855,0.512-2.579,1.011
		c-1.586,1.104-2.444,2.984-2.401,5.262c0.041,3.059-2.508,5.574-5.756,5.591c-3.239,0.085-5.898-2.33-5.952-5.43
		c-0.085-5.861,2.504-11.071,7.161-14.33c5.055-3.495,11.645-4.241,18.602-2.071c2.908,0.92,4.592,3.779,3.863,6.592l-7.807,29.957
		c1.151-0.164,2.669-0.331,4.688-0.441c3.241-0.178,5.996,2.152,6.193,5.18c0.176,3.066-2.296,5.681-5.516,5.876
		c-2.014,0.082-3.305,0.263-4.452,0.438C52.681,134.806,51.493,134.966,50.107,134.966z"/>
</g>
</svg>
